<?xml version="1.0" encoding="UTF-8" ?>
<!DOCTYPE svg PUBLIC "-//W3C//DTD SVG 1.1//EN" "http://www.w3.org/Graphics/SVG/1.1/DTD/svg11.dtd">
<svg width="813pt" height="743pt" viewBox="0 0 813 743" version="1.1" xmlns="http://www.w3.org/2000/svg">
<g id="#3c8bd9ff">
<path fill="#3c8bd9" opacity="1.00" d=" M 367.86 5.58 C 393.19 -1.90 420.69 -1.61 445.93 6.11 C 470.90 13.70 493.58 28.68 510.23 48.79 C 522.37 63.07 530.11 80.30 539.48 96.38 C 560.09 132.99 581.19 169.32 602.24 205.68 C 662.25 309.99 722.69 414.07 782.20 518.68 C 790.94 534.36 800.97 549.59 806.17 566.94 C 816.93 600.42 813.30 637.98 797.06 669.09 C 784.56 693.36 764.61 713.81 740.39 726.49 C 705.55 744.88 662.54 747.11 626.08 732.10 C 597.89 720.66 574.31 699.11 559.05 672.93 C 508.33 584.95 457.82 496.84 406.91 408.97 C 396.60 389.84 385.48 371.15 374.70 352.29 C 347.13 304.26 319.29 256.38 291.50 208.48 C 279.33 188.07 271.66 164.80 270.72 140.97 C 269.77 124.93 272.93 109.01 276.93 93.56 C 281.74 80.66 287.99 68.24 295.88 56.93 C 313.24 32.44 339.01 13.96 367.86 5.58 Z" />
</g>
<g id="#fabc04ff">
<path fill="#fabc04" opacity="1.00" d=" M 270.05 104.99 C 272.32 101.17 274.36 97.20 276.93 93.56 C 272.93 109.01 269.77 124.93 270.72 140.97 C 271.66 164.80 279.33 188.07 291.50 208.48 C 319.29 256.38 347.13 304.26 374.70 352.29 C 385.48 371.15 396.60 389.84 406.91 408.97 C 386.99 443.34 367.04 477.69 346.97 511.97 C 318.96 560.61 290.61 609.08 262.56 657.69 C 262.18 655.28 263.25 653.12 264.21 651.00 C 276.29 614.68 273.28 573.16 254.26 539.72 C 236.75 508.33 205.85 485.12 171.20 475.96 C 141.75 467.94 109.57 470.25 81.69 482.77 C 61.98 491.34 45.43 505.59 30.78 521.03 C 30.84 517.75 33.47 515.64 34.94 512.99 C 113.02 376.82 191.44 240.85 270.05 104.99 Z" />
</g>
<g id="#34a852ff">
<path fill="#34a852" opacity="1.00" d=" M 81.69 482.77 C 109.57 470.25 141.75 467.94 171.20 475.96 C 205.85 485.12 236.75 508.33 254.26 539.72 C 273.28 573.16 276.29 614.68 264.21 651.00 C 263.25 653.12 262.18 655.28 262.56 657.69 C 248.87 685.45 228.80 711.15 201.30 726.26 C 180.01 738.18 155.23 742.91 130.99 741.98 C 97.46 741.03 64.45 727.03 40.75 703.24 C 14.59 677.43 0.12 640.62 0.68 603.97 C 0.90 583.44 6.29 563.06 15.87 544.93 C 20.36 536.69 25.17 528.53 30.78 521.03 C 45.43 505.59 61.98 491.34 81.69 482.77 Z" />
</g>
</svg>
